<svg width="24" height="25" viewBox="0 0 24 25" fill="none" xmlns="http://www.w3.org/2000/svg">
<mask id="mask0_1228_12" style="mask-type:alpha" maskUnits="userSpaceOnUse" x="0" y="0" width="24" height="25">
<rect y="0.25" width="24" height="24" fill="#D9D9D9"/>
</mask>
<g mask="url(#mask0_1228_12)">
<path d="M16.175 13.25H5C4.71667 13.25 4.47917 13.1542 4.2875 12.9625C4.09583 12.7708 4 12.5333 4 12.25C4 11.9667 4.09583 11.7292 4.2875 11.5375C4.47917 11.3458 4.71667 11.25 5 11.25H16.175L11.275 6.35C11.075 6.15 10.9792 5.91667 10.9875 5.65C10.9958 5.38334 11.1 5.15 11.3 4.95C11.5 4.76667 11.7333 4.67084 12 4.6625C12.2667 4.65417 12.5 4.75 12.7 4.95L19.3 11.55C19.4 11.65 19.4708 11.7583 19.5125 11.875C19.5542 11.9917 19.575 12.1167 19.575 12.25C19.575 12.3833 19.5542 12.5083 19.5125 12.625C19.4708 12.7417 19.4 12.85 19.3 12.95L12.7 19.55C12.5167 19.7333 12.2875 19.825 12.0125 19.825C11.7375 19.825 11.5 19.7333 11.3 19.55C11.1 19.35 11 19.1125 11 18.8375C11 18.5625 11.1 18.325 11.3 18.125L16.175 13.25Z" fill="white"/>
</g>
</svg>
